<?xml version="1.0" encoding="UTF-8"?>
<svg width="370px" height="370px" viewBox="0 0 370 370" version="1.1" xmlns="http://www.w3.org/2000/svg" xmlns:xlink="http://www.w3.org/1999/xlink">
    <title>HDT_Logo_FIN Copy</title>
    <g id="Design" stroke="none" stroke-width="1" fill="none" fill-rule="evenodd">
        <g id="HDT-Programm-L" transform="translate(-45.000000, -19.000000)" fill-rule="nonzero">
            <g id="HDT_Logo_FIN-Copy" transform="translate(45.000000, 19.000000)">
                <rect id="Rectangle" fill="#FFFFFF" x="0" y="0" width="370" height="370"></rect>
                <g id="Group" transform="translate(226.000000, 230.000000)">
                    <path d="M119,59.5007077 C119,92.3617622 92.3618953,119 59.5002973,119 C26.6393503,119 0,92.3617622 0,59.5007077 C0,26.6382805 26.6393499,0 59.5002973,0 C92.3618953,0 119,26.6382805 119,59.5007077 Z" id="Path" fill="#DA1C5C"></path>
                    <g transform="translate(12.106799, 50.680376)" fill="#FFFFFF">
                        <path d="M5.49191514,3.91026943 C8.67723828,3.91026943 11.0714601,5.82134858 11.0714601,9.84126884 C11.0714601,13.9267417 8.58907102,15.4649116 5.49191514,15.4649116 C2.28451447,15.4649116 0,13.8611891 0,9.81921996 C0,5.86547463 2.30659153,3.91026943 5.49191514,3.91026943 Z M5.49191514,12.6757475 C6.72204284,12.6757475 7.24932132,11.400978 7.24932132,9.79782123 C7.24932132,7.68895184 6.74346928,6.722133 5.49191514,6.722133 C4.26178743,6.722133 3.73450895,7.79857438 3.73450895,9.81921949 C3.73450895,11.4449626 4.17353484,12.6757475 5.49191514,12.6757475 Z" id="Shape"></path>
                        <path d="M12.3325528,0.637413296 C13.0134381,0.35145489 14.7928931,0 16.0671471,0 L16.0671471,4.8550955 C16.5722066,4.41552948 17.3193235,3.99792749 18.439801,3.99792749 C21.0317837,3.99792749 22.6354699,6.17277426 22.6354699,9.55587573 C22.6354699,12.9831037 20.833994,15.4649111 17.2531485,15.4649111 C15.2765549,15.4649111 13.3869683,15.1348262 12.3325528,14.8500564 L12.3325528,0.637413296 Z M16.0671466,7.09563677 L16.0671466,12.4993834 C16.0671466,12.4993834 16.6604587,12.6089776 17.2091066,12.6089776 C18.1759772,12.6089776 18.8348415,11.5331307 18.8348415,9.57792507 C18.8348415,7.88609146 18.1539279,6.91992371 17.2972738,6.91992371 C16.8140938,6.91992371 16.3965222,6.98601424 16.0671466,7.09563677 Z" id="Shape"></path>
                        <path d="M27.0378443,10.3024024 C27.0598083,11.6867949 28.026792,12.566125 29.5862953,12.566125 C30.4649699,12.566125 31.5635117,12.28011 32.7054717,11.642725 L33.5621258,13.8838891 C31.9584113,14.9156094 30.2451597,15.4649116 28.6855715,15.4649116 C25.7635903,15.4649116 23.4134949,13.5764192 23.4134949,9.48987099 C23.4134949,5.51399238 26.1811903,3.9544247 28.7076207,3.9544247 C31.7606503,3.9544247 33.2988974,5.97498495 33.2988974,8.30369392 L33.2988974,10.3024033 L27.0378443,10.3024033 L27.0378443,10.3024024 Z M27.0157951,8.25962352 L29.8275315,8.25962352 C29.8275315,7.09563677 29.5202612,6.30453147 28.5974038,6.30453147 C27.8289174,6.30453147 27.0598083,6.76620294 27.0157951,8.25962352 Z" id="Shape"></path>
                        <path d="M41.4369415,8.32574234 C41.4369415,7.09563677 40.6898811,6.96396536 40.0530655,6.96396536 C39.5913393,6.96396536 39.1303212,7.13976329 38.7127213,7.38102942 L38.7127213,15.1574983 L34.8686182,15.1574983 L34.8686182,4.43749397 C35.8133547,4.06393362 37.2192516,3.86614292 38.6472534,3.86614292 L38.6472534,5.38232004 C39.5472979,4.63528421 40.734007,3.97647312 41.8105278,3.97647312 C43.9628053,3.97647312 45.2810442,4.96471804 45.2810442,7.68895184 L45.2810442,15.1574983 L41.436941,15.1574983 L41.436941,8.32574234 L41.4369415,8.32574234 Z" id="Path"></path>
                        <path d="M46.9419331,12.2134532 C47.556813,12.45537 48.8089612,12.6972023 49.929467,12.6972023 C50.6544498,12.6972023 51.0493782,12.5208382 51.0493782,12.0823193 C51.0493782,11.8179572 50.9177923,11.5557741 50.5222128,11.3580117 L48.83101,10.5001931 C47.9082374,10.0390591 46.8102901,9.22652722 46.8102901,7.3375257 C46.8102901,4.94264087 49.0287714,3.95442423 51.7309141,3.95442423 C52.7191828,3.95442423 53.7742207,4.08601079 54.8274189,4.32789972 C54.8274189,5.05232044 54.4545398,6.54633507 54.0589891,7.13976375 C53.3120419,6.89781825 52.3016395,6.74412624 51.4229084,6.74412624 C50.8081132,6.74412624 50.5001924,7.00746954 50.5001924,7.35895271 C50.5001924,7.71035056 50.7200308,7.97431666 51.2031547,8.19415625 L52.8949799,8.98463922 C53.8397734,9.42426181 55.0038105,10.281005 55.0038105,12.1479294 C55.0038105,14.5867988 52.8509102,15.3993594 50.4566884,15.3993594 C49.2705738,15.3993594 48.0183686,15.2015687 46.9419326,14.8942408 L46.9419326,12.2134532 L46.9419331,12.2134532 Z" id="Path"></path>
                        <path d="M60.818026,4.28380149 L63.5857497,4.28380149 L63.5857497,6.91992371 L60.818026,6.91992371 L60.7965713,10.9838573 C60.7965713,12.3897608 61.2350314,12.6531324 61.9820348,12.6531324 C62.3549139,12.6531324 62.8601153,12.5208382 63.3439468,12.3897608 C63.5857492,12.9831042 63.7608957,14.3008683 63.8275521,14.8942399 C62.8172346,15.2671209 61.8939524,15.4875267 60.708404,15.4875267 C58.8628871,15.4875267 57.1937048,14.6964209 57.2151595,11.7297612 L57.2365577,6.91992417 L55.2599358,6.91992417 C55.2599358,6.08531468 55.5019084,5.07431321 56.0070811,4.28380195 L57.3032707,4.28380195 L57.3246971,2.48237363 C57.3246971,2.48237363 59.4120451,1.49407166 60.8394812,1.38382679 L60.818026,4.28380149 Z" id="Path"></path>
                        <path d="M74.9222217,14.2567135 C74.131035,14.9370642 72.813476,15.3993585 71.5397033,15.4875267 L70.7926995,14.4319173 C70.199444,14.9597364 69.4082573,15.4649116 67.7617187,15.4649116 C65.7184404,15.4649116 64.3351306,13.9720007 64.3351306,12.3230762 C64.3351306,11.2912706 64.861758,10.1926954 65.7624535,9.66555577 C66.839484,9.02876527 68.6397709,8.76482746 70.1564784,8.67725381 L70.1564784,8.23768779 C70.1564784,7.29339919 69.6060187,6.85372002 68.6183162,6.85372002 C67.3875657,6.85372002 66.4439612,7.13976329 65.7839078,7.46911226 L64.8403599,5.22865585 C65.7839078,4.67929757 67.740264,3.88822008 69.3653761,3.88822008 C70.3316239,3.88822008 71.166852,3.99792749 71.9126951,4.50358404 C72.8574316,5.11835394 73.7140857,6.0411877 73.692688,7.75450444 L73.6485334,12.7186001 L74.9222217,14.2567135 Z M70.0897371,12.9616776 L70.0897371,10.697955 C68.7934343,10.8075493 67.8712841,11.2698153 67.8712841,12.0383059 C67.8712841,12.6757475 68.3550025,13.1808944 69.1009022,13.1808944 C69.386803,13.1808944 69.7383123,13.0926984 70.0897371,12.9616776 Z" id="Shape"></path>
                        <path d="M86.5946649,14.2794417 C86.0896337,14.8500568 84.6181279,15.4208699 83.0799657,15.4208699 L82.3115076,14.3675533 C81.6514543,14.9156099 80.5529129,15.3779041 79.1041918,15.3779041 C76.5997536,15.3779041 74.9960674,13.1582515 74.9960674,9.53388389 C74.9960674,6.43674082 76.643795,3.91026943 79.2352398,3.91026943 C80.2908439,3.91026943 81.0581417,4.23973155 81.5859298,4.56916538 L81.5859298,0.505118614 C82.6617713,0.153692476 84.1785354,0 85.3210616,0 L85.3210616,12.566125 L86.5946649,14.2794417 Z M81.5859298,12.543425 L81.5859298,7.07353132 C81.3225878,6.98601424 80.9485197,6.89781825 80.5100317,6.89781825 C79.3901205,6.89781825 78.7968084,8.01838614 78.7968084,9.57792554 C78.7968084,11.5987404 79.5426232,12.6531329 80.796017,12.6531329 C81.036744,12.6531329 81.3011619,12.6304324 81.5859298,12.543425 Z" id="Shape"></path>
                        <path d="M91.8453434,4.28380149 L94.6143123,4.28380149 L94.6143123,6.91992371 L91.8453434,6.91992371 L91.823917,10.9838573 C91.823917,12.3897608 92.2623771,12.6531324 93.0105978,12.6531324 C93.3835335,12.6531324 93.8887066,12.5208382 94.371236,12.3897608 C94.6143123,12.9831042 94.7893451,14.3008683 94.8549544,14.8942399 C93.8446652,15.2671209 92.9224588,15.4875267 91.7358063,15.4875267 C89.8914497,15.4875267 88.2209939,14.6964209 88.242477,11.7297612 L88.2651202,6.91992417 L86.2884984,6.91992417 C86.2884984,6.08531468 86.5291971,5.07431321 87.034398,4.28380195 L88.3306159,4.28380195 L88.3533441,2.48237363 C88.3533441,2.48237363 90.4394748,1.49407166 91.868015,1.38382679 L91.8453434,4.28380149 Z" id="Path"></path>
                    </g>
                </g>
                <g id="Group" transform="translate(49.000000, 112.000000)" fill="#1D1E1C">
                    <path d="M49.5537189,181.765559 C49.5509292,182.036191 49.4319565,182.072777 49.1937586,181.873959 L0.279358049,140.940684 C0.0904656262,140.783004 -0.00338705144,140.535034 0,140.197578 L0.115842371,128.964715 C0.11930846,128.628349 0.216637847,128.538878 0.405530732,128.696544 L19.7716076,144.964505 L19.928018,129.785743 L0.560898537,113.619127 C0.372006114,113.461447 0.277801148,113.247985 0.280587594,112.977367 L0.396329688,101.745593 C0.399806397,101.408137 0.497132552,101.318667 0.686024975,101.476333 L49.6035504,142.10666 C49.8417488,142.305492 49.9575999,142.57184 49.9541956,142.909281 L49.837338,154.242415 C49.8338507,154.580945 49.7145474,154.649889 49.4763421,154.451058 L28.5434689,136.97744 L28.3870512,152.156202 L49.3199317,169.629805 C49.5581301,169.828651 49.6743122,170.06264 49.6715507,170.331095 L49.5537189,181.765559 Z" id="Path"></path>
                    <path d="M49.6744526,135.226137 L0.888309884,81.8460447 C0.700093873,81.6226011 0.606255047,81.3735563 0.608984756,81.1029532 L0.7602354,66.4309041 C0.763011227,66.1613753 0.860329994,66.0729787 1.04992007,66.1627326 L50.0894646,94.9521243 C50.3283394,95.0852063 50.4445358,95.3181215 50.4411446,95.6544882 L50.3253309,106.886277 C50.3225412,107.15688 50.2032162,107.227988 49.9643349,107.094919 L44.7549152,103.869649 L44.6131093,117.630692 L49.7995758,123.083343 C50.0370766,123.350102 50.1529207,123.617524 50.1501523,123.885964 L50.0344139,135.117753 C50.0316233,135.388369 49.912651,135.424969 49.6744526,135.226137 Z M37.0153165,109.247446 L37.1154148,99.5336482 L17.0652841,86.9811595 L14.4251649,85.3895309 L17.0548498,87.9935111 L37.0153165,109.247446 Z" id="Shape"></path>
                    <path d="M50.535947,86.4474031 C50.5331573,86.7180062 50.4141846,86.7546202 50.1759866,86.5557746 L1.26262495,45.5211678 C1.07373622,45.3634879 0.979538178,45.1489365 0.982257943,44.8794076 L1.10953293,32.533936 C1.11229814,32.2654814 1.21032841,32.1080841 1.40131009,32.0630804 L10.8952797,30.7007483 L1.591083,13.6467414 C1.40427937,13.2863775 1.31111742,12.9715621 1.3139071,12.7009585 L1.44216858,0.254134228 C1.44493378,-0.0143134139 1.54191827,-0.0703650391 1.73081069,0.0873078928 L50.6483467,40.7165537 C50.8865451,40.9153855 51.0027273,41.1493888 51,41.4189176 L50.8821344,52.8523087 C50.8793447,53.1229118 50.760372,53.1595258 50.522174,52.9606802 L14.2083425,22.7501128 L24.9218401,42.409358 L13.9904203,43.8983828 L50.3021593,74.3116486 C50.5403577,74.5104803 50.6565398,74.7444837 50.6537714,75.0129239 L50.535947,86.4474031 Z" id="Path"></path>
                </g>
                <g id="Group" transform="translate(55.000000, 60.000000)" fill="#1D1E1C">
                    <path d="M47.8142151,79.983044 C47.6523091,80.0323457 47.4559718,79.974281 47.2216043,79.8069295 L0.142506669,46.0681864 C-0.0362479512,45.9405541 -0.0472129656,45.8521968 0.111742736,45.8046462 L11.5552344,42.3813164 C13.816894,41.7047356 16.4603649,41.5391491 19.487115,41.8832509 C22.5165828,42.2287864 25.5666895,42.9660233 28.642884,44.0978994 C31.7215421,45.2312794 34.4732111,46.6505346 36.8946665,48.3557913 C38.8632603,49.7421267 40.309291,51.1503945 41.2307186,52.5800716 C42.1544188,54.013202 42.6081837,55.2655712 42.5897401,56.3374765 C45.082796,56.9315396 47.5264006,57.7504825 49.9213019,58.7949545 C52.3194927,59.8422017 54.4940233,61.0512782 56.4445547,62.4251365 C59.1438647,64.3263923 61.0528925,66.2365952 62.1738409,68.1571072 C63.2950784,70.0814536 63.571098,71.8068064 62.9993024,73.3304552 C62.4260034,74.8565964 60.9716014,75.9764118 58.6376631,76.6871341 L47.8142151,79.983044 Z M46.3544134,71.7574769 L50.0909446,70.6232283 C51.5368273,70.1843219 52.1646313,69.370195 51.9739342,68.1798591 C51.7849589,66.9920508 50.8537486,65.8064666 49.1826743,64.6244767 C47.5138656,63.4440898 45.5597343,62.587461 43.3167797,62.0508837 C41.0762457,61.5152383 39.2374775,61.4652378 37.7968604,61.9005638 L34.1341038,63.0073653 L46.3544134,71.7574769 Z M25.8086734,57.0878407 L30.3604454,55.7166377 C31.7570248,55.2959213 32.3228703,54.5595599 32.0583277,53.5069039 C31.7949074,52.4566343 31.0004398,51.4628412 29.6758916,50.5261169 C28.2165344,49.4940656 26.4948301,48.7375868 24.5103827,48.2553104 C22.5273614,47.7740651 20.9000916,47.7237467 19.627493,48.1055908 L15.0903746,49.4669507 L25.8086734,57.0878407 Z" id="Shape"></path>
                    <path d="M88.5442267,68.2911441 C86.4226486,68.9373614 83.8115685,69.080352 80.71206,68.7211742 C77.6152761,68.3627521 74.455559,67.5871583 71.2362411,66.3944568 C68.0226121,65.204784 65.1316234,63.7073473 62.5658943,61.9051887 L28.2261829,37.6660815 C28.0459036,37.5394663 28.0330434,37.4519633 28.1916531,37.4045117 L34.8291323,35.418902 C34.9868738,35.3717188 35.1577793,35.4118689 35.3384398,35.5382299 L69.8711422,59.6916278 C71.4601626,60.8030477 73.2339156,61.6144137 75.1928396,62.1224 C77.1527092,62.6323637 78.7523597,62.6990923 79.9899973,62.3232928 C81.2668377,61.9355878 81.7815943,61.2271252 81.5359186,60.1975455 C81.2900879,59.1706914 80.369444,58.1018793 78.7763015,56.9932911 L44.1533922,32.9009659 C43.972252,32.7749227 43.9593136,32.6876029 44.1173659,32.6403212 L50.7315168,30.6616881 C50.8880726,30.614858 51.0591336,30.6548035 51.2406479,30.7805926 L86.0553132,54.7876814 C88.6859873,56.6105788 90.5578527,58.4337798 91.6710224,60.2570512 C92.7858721,62.0848206 93.0934355,63.7126441 92.5943206,65.1399982 C92.0939775,66.570282 90.7440401,67.6210879 88.5442267,68.2911441 Z" id="Path"></path>
                    <path d="M105.800135,62.3254109 C105.640304,62.3740842 105.443021,62.3170575 105.204672,62.1524525 L57.3147598,28.9633326 C57.1329138,28.8377624 57.1193898,28.7507503 57.276355,28.7037962 L69.164298,25.1475063 C71.2796363,24.5146982 73.8360417,24.3488224 76.8352358,24.6477249 C79.8363923,24.9481809 82.8934373,25.6401519 86.0050015,26.7242131 C89.1230595,27.8106256 91.9818336,29.2391343 94.5840479,31.0114657 C96.3062324,32.1844312 97.6404578,33.305193 98.584296,34.3724942 C99.5301247,35.442274 100.187617,36.3926332 100.556306,37.2238839 C100.925434,38.0565677 101.108501,38.704593 101.104393,39.1663564 C106.045684,40.4443508 110.427821,42.3836886 114.250196,44.9879343 L128.92779,54.9293286 C129.167757,55.0928104 129.186763,55.2038063 128.988492,55.2641871 L122.265373,57.311484 C122.106121,57.3599805 121.955113,57.3350758 121.811729,57.236981 L107.080844,47.1593043 C105.383646,45.9982157 103.409053,45.1443552 101.156527,44.596162 C98.9058359,44.0490914 97.0491884,43.9957863 95.5884338,44.437199 L91.6753715,45.6196411 L112.430281,59.9524275 C112.669138,60.1166863 112.706943,60.2221813 112.548622,60.2703886 L105.800135,62.3254109 Z M83.277853,39.8445268 L88.3634885,38.3124612 C89.5836355,37.9448805 90.132216,37.2517836 90.00556,36.233643 C89.8797787,35.217098 89.049765,34.1845811 87.5167885,33.1362394 C86.0323882,32.1211137 84.2959738,31.3888483 82.3088587,30.9368151 C80.3225198,30.485954 78.7016659,30.4487555 77.4452106,30.8257628 L72.3756539,32.3469186 L83.277853,39.8445268 Z" id="Shape"></path>
                    <path d="M146.742075,50.5643673 C144.608738,51.214172 142.023746,51.3654803 138.989288,51.018222 C135.956863,50.6718957 132.831111,49.9211437 129.612541,48.7653371 C126.398841,47.6119382 123.463893,46.1325072 120.80682,44.3275808 L98.4740856,29.1571534 C95.9626847,27.4511836 94.1725985,25.7274791 93.0993792,23.9844727 C92.0290825,22.2459926 91.7392637,20.6940781 92.2288781,19.3295228 C92.7164456,17.9665422 93.9929048,16.9775615 96.0572251,16.3601888 C98.1977057,15.7200407 100.746869,15.5542848 103.704588,15.8613399 C106.664184,16.1692635 109.695621,16.8739375 112.802188,17.9760364 C115.911847,19.0794065 118.777778,20.5098532 121.39833,22.2667209 L124.636057,24.4373528 C124.823769,24.5631984 124.820338,24.6554078 124.625117,24.7141643 L118.063551,26.6889031 C117.906755,26.73609 117.735617,26.6963421 117.548286,26.5702425 L114.878452,24.7730624 C113.10244,23.5775537 111.211348,22.7137298 109.206925,22.1798777 C107.20359,21.6479817 105.578204,21.5683558 104.329781,21.9428419 C103.197653,22.2824387 102.749669,22.9603684 102.987693,23.9783924 C103.22535,24.9977089 104.089414,26.0118878 105.581028,27.0209938 L127.959148,42.1603058 C129.527078,43.2210468 131.305066,43.9993593 133.29029,44.4922557 C135.277123,44.9869032 136.86308,45.0542255 138.045111,44.6953092 C139.305534,44.3125895 139.809576,43.6228815 139.558084,42.6252752 C139.305745,41.6298013 138.370631,40.5866357 136.750836,39.4962795 L133.257171,37.1445509 L129.133133,38.3926271 C128.935949,38.4523087 128.72054,38.4027108 128.482671,38.2421869 L120.545165,32.8856349 C120.309583,32.7266506 120.289156,32.6174346 120.485874,32.5580848 L131.467438,29.2450378 C131.623034,29.1980948 131.820303,29.2538077 132.056661,29.4122625 L143.87709,37.3368997 C146.55147,39.1298571 148.457695,40.9154713 149.5966,42.6939603 C150.737848,44.4766087 151.089965,46.0677977 150.653768,47.4677685 C150.217078,48.8704155 148.913514,49.9029611 146.742075,50.5643673 Z" id="Path"></path>
                    <path d="M163.22407,44.8389143 C163.066272,44.8869661 162.8681,44.8309635 162.625869,44.669056 L113.888621,12.0375068 C113.703775,11.9139631 113.687738,11.8282713 113.843362,11.7817165 L132.483272,6.20556993 C132.637004,6.15958023 132.831958,6.21376783 133.064844,6.36772088 L140.936015,11.5712982 C141.12456,11.6959433 141.140484,11.7814199 140.986384,11.8276567 L129.062634,15.4055573 L140.072657,22.7348537 L152.033295,19.131656 C152.187874,19.0850906 152.361582,19.1246511 152.550296,19.2494096 L160.672902,24.562874 C160.864369,24.6894433 160.880561,24.7756719 160.725615,24.8224913 L148.677735,28.4631948 L161.227101,36.8172341 L173.316979,33.147375 C173.472462,33.1001774 173.672102,33.1562582 173.913274,33.3156941 L182.185265,38.784068 C182.379174,38.912251 182.397272,39.0003682 182.241394,39.0478272 L163.22407,44.8389143 Z" id="Path"></path>
                    <path d="M189.109832,36.9562843 C188.952965,37.0040607 188.754369,36.9485167 188.510431,36.787817 L139.480286,4.38096026 C139.294113,4.25833093 139.276961,4.1732287 139.431075,4.12712608 L151.103616,0.635273611 C153.18067,0.0139221216 155.716182,-0.151148417 158.711762,0.137949467 C161.709362,0.428565687 164.779098,1.10210332 167.919601,2.15911952 C171.066641,3.21841671 173.970236,4.61261128 176.633181,6.343384 C178.395514,7.4888214 179.769803,8.58361553 180.75355,9.62653032 C181.739386,10.6718603 182.433412,11.6006972 182.835206,12.4133308 C183.237479,13.2273693 183.446889,13.8609934 183.462332,14.3126342 C188.430304,15.5571516 192.870052,17.4490864 196.781095,19.9918925 L211.795686,29.6980095 C212.041178,29.8576222 212.064753,29.9661464 211.870139,30.0254115 L205.271022,32.0349518 C205.114692,32.0825514 204.963501,32.0583668 204.81677,31.962595 L189.743199,22.1234512 C188.006403,20.9897746 186.006724,20.1568681 183.743512,19.6232141 C181.482205,19.0906545 179.633576,19.0405725 178.199559,19.473904 L174.358153,20.6346922 L195.602564,34.6284363 C195.846983,34.7887973 195.889023,34.8919127 195.733625,34.93923 L189.109832,36.9562843 Z M165.762674,14.9956238 L170.755506,13.4915139 C171.953391,13.1306452 172.469644,12.4521226 172.300623,11.4564155 C172.132533,10.462255 171.263388,9.45323736 169.69447,8.42951116 C168.175229,7.43819988 166.417329,6.72384812 164.421927,6.28387228 C162.427344,5.84504363 160.81376,5.81043658 159.580132,6.18059814 L154.602702,7.67411297 L165.762674,14.9956238 Z" id="Shape"></path>
                </g>
                <g id="Group" transform="translate(106.000000, 96.000000)" fill="#1D1E1C">
                    <path d="M1.97945737,120.065268 C1.67265781,120.165709 1.52084,120.055044 1.52084,119.731312 L1.69736048,53.1323334 C1.69733924,52.8752377 1.81898517,52.7051285 2.06392598,52.6249251 L19.2048685,46.9157108 C22.5649424,45.7518828 25.635815,45.5847705 28.4174865,46.4173777 C31.1975229,47.2505205 33.4136755,48.8663463 35.0639138,51.2633672 C36.7141525,53.6621085 37.5392578,56.6367066 37.539624,60.1870417 L37.5425419,87.9839595 C37.5429362,91.7294786 36.6867926,95.4162308 34.9769713,99.0424254 C33.2659237,102.670312 30.9745851,105.858767 28.1029688,108.606069 C25.2301124,111.355062 21.992206,113.35209 18.3871908,114.596121 L1.97945737,120.065268 Z M12.7025414,104.640939 L18.3859516,102.780019 C20.6458006,102.040068 22.556457,100.575636 24.1146651,98.3856531 C25.6724644,96.1975174 26.4514345,93.940221 26.4511949,91.6156118 L26.4482627,63.7215389 C26.4480512,61.6557319 25.7288891,60.0996458 24.2936382,59.0514758 C22.8571606,58.0054071 21.1611816,57.8345645 19.2060953,58.5379184 L12.7898927,60.7359543 L12.7025414,104.640939 Z" id="Shape"></path>
                    <path d="M41.6696616,106.585334 L53.0286868,36.3248546 C53.0888753,36.0480359 53.2422506,35.8675396 53.4872053,35.7873366 L66.7781854,31.4354559 C67.0219138,31.3556545 67.1749228,31.4358224 67.2367885,31.6726738 L78.1516159,94.639993 C78.2118751,94.9440091 78.0902292,95.1442141 77.7850573,95.2441331 L67.6104365,98.5756332 C67.3654819,98.6558362 67.2120641,98.5456926 67.1522279,98.2415495 L66.1428074,91.501237 L53.6765801,95.5830682 L52.6690625,102.983791 C52.6076476,103.327634 52.4542723,103.538233 52.2109527,103.6179 L42.0363181,106.949386 C41.7913778,107.02959 41.6696616,106.909066 41.6696616,106.585334 Z M55.508936,84.6193598 L64.3086912,81.7380525 L60.5474117,55.753019 L59.9973277,52.3491425 L59.6311076,56.053058 L55.508936,84.6193598 Z" id="Shape"></path>
                    <path d="M100.792633,88.6794019 C97.4309245,89.780119 94.3901599,89.8875129 91.6715527,89.0024288 C88.951733,88.1177536 86.7974184,86.4498741 85.2086228,83.999636 C83.6186008,81.550653 82.8248161,78.4841038 82.8244355,74.8039235 L82.9128015,44.5552583 C82.9124353,41.0049232 83.6912783,37.5055705 85.2493594,34.056325 C86.8074262,30.6083771 88.9453761,27.5522641 91.664829,24.8848837 C94.3830556,22.2196258 97.4236368,20.335781 100.785332,19.2350569 C104.14542,18.1348615 107.170312,18.0163337 109.860024,18.8790575 C112.548509,19.742169 114.68736,21.3828798 116.277382,23.7996162 C117.866178,26.2184752 118.661174,29.2347545 118.661555,32.8500051 L118.66202,37.3053373 C118.662048,37.5641539 118.539176,37.7329373 118.295448,37.8127387 L108.029276,41.1742075 C107.784321,41.2544104 107.662647,41.1656965 107.662619,40.9068799 L107.662154,36.4515477 C107.661928,34.3208317 107.004209,32.6960439 105.690618,31.576217 C104.3758,30.4572224 102.741658,30.2175363 100.786558,30.8576953 C98.5865172,31.5780572 96.9053385,32.9200474 95.7450659,34.8812813 C94.5839758,36.8445037 94.0039384,38.8582362 94.0041638,40.923606 L94.0073351,71.1422881 C94.0075748,73.5318272 94.663687,75.2538903 95.9788993,76.3078285 C97.292082,77.3641642 98.8965236,77.5804603 100.791393,76.960017 C102.746493,76.319858 104.380465,74.9615091 105.694945,72.8844337 C107.008212,70.8081906 107.66555,68.7373201 107.665325,66.6702442 L107.664859,62.214912 C107.664831,61.9573791 107.786477,61.7877071 108.031418,61.7075037 L118.389156,58.3160662 C118.632884,58.2362578 118.75618,58.3257269 118.756208,58.5832597 L118.756673,63.038578 C118.757067,66.7187584 117.946481,70.3106264 116.328606,73.8099796 C114.709096,77.3107145 112.55488,80.38935 109.866761,83.0447568 C107.177417,85.7005587 104.152707,87.5792064 100.792633,88.6794019 Z" id="Path"></path>
                    <path d="M127.648741,78.917204 C127.403786,78.997407 127.282084,78.8768837 127.282084,78.5531516 L127.366644,11.9842759 C127.366615,11.7271802 127.518778,11.5470859 127.825162,11.4467649 L137.999797,8.11527174 C138.304969,8.01535271 138.457963,8.0955275 138.457991,8.35262365 L138.369216,34.7267845 L152.118771,30.2247574 L152.115981,3.88056537 C152.115952,3.62346968 152.237598,3.45336742 152.482553,3.37316398 L162.657188,0.0416708673 C162.962359,-0.0582481718 163.115777,0.0217926086 163.115805,0.27888876 L163.305871,66.7578236 C163.305871,67.08157 163.152933,67.2920272 162.847761,67.3919463 L152.581195,70.7535421 C152.274811,70.8538701 152.123,70.7431906 152.122972,70.4194584 L152.119984,41.9441276 L138.370429,46.4461546 L138.373417,74.9214993 C138.373474,75.2452314 138.250192,75.4459582 138.006873,75.5256251 L127.648741,78.917204 Z" id="Path"></path>
                    <path d="M13.9057072,198.973838 C13.6387911,199.061248 13.5057278,198.929837 13.5056858,198.576418 L13.4993708,138.351006 L0.500122124,142.607361 C0.16565966,142.71687 0,142.596121 0,142.242716 L0.0988531704,130.376211 C0.0988249953,130.095464 0.231451382,129.910166 0.498776184,129.82263 L38.4972014,117.380754 C38.8300288,117.271781 38.9972741,117.358894 38.9973166,117.639641 L38.9985572,129.473371 C38.9985572,129.826776 38.8643383,130.045723 38.5986342,130.13271 L25.4992991,134.421854 L25.6052986,194.614632 C25.6053411,194.968022 25.4710935,195.186984 25.2053899,195.273971 L13.9057072,198.973838 Z" id="Path"></path>
                    <path d="M37.9059295,190.587011 L50.2978021,113.939504 C50.3632765,113.637307 50.5304937,113.440684 50.7978185,113.353148 L65.2972645,108.605575 C65.5629542,108.518589 65.7298046,108.605829 65.7973654,108.864462 L77.7044168,177.555762 C77.7699619,177.887688 77.6373355,178.106113 77.3045081,178.215101 L66.205013,181.849418 C65.9376882,181.936941 65.7704429,181.816728 65.7048978,181.484774 L64.6038554,174.132142 L51.0044614,178.584992 L49.9054485,186.658 C49.8383529,187.033391 49.6711357,187.263128 49.4054321,187.350114 L38.3059509,190.984432 C38.0386261,191.071982 37.9059295,190.94043 37.9059295,190.587011 Z M53.0031171,166.624405 L62.6028168,163.481164 L58.4998998,135.133683 L57.8997476,131.420742 L57.500177,135.461026 L53.0031171,166.624405 Z" id="Shape"></path>
                    <path d="M102.20247,171.119507 C98.6027415,172.298171 95.3357412,172.416861 92.4026962,171.475182 C89.4680162,170.534024 87.1179827,168.751361 85.3521594,166.123046 C83.584701,163.49741 82.7013804,160.212111 82.7009716,156.266669 L82.6974616,122.7728 C82.697053,118.969233 83.5796406,115.176653 85.346408,111.392082 C87.1115546,107.609332 89.4785592,104.280454 92.4453917,101.40696 C95.4105891,98.5344385 98.6602936,96.5193455 102.19452,95.3621319 C105.860174,94.161876 109.177228,94.0100443 112.14485,94.9038579 C115.110442,95.8000691 117.460489,97.5483355 119.195372,100.150222 C120.92824,102.7528 121.795689,106.026534 121.796098,109.970679 L121.796619,114.831004 C121.796647,115.113457 121.629839,115.308247 121.296997,115.41722 L110.097422,119.084313 C109.830098,119.171849 109.69702,119.075259 109.696992,118.792791 L109.696569,114.777709 C109.696287,112.101416 108.979127,110.117307 107.546286,108.824987 C106.111824,107.534925 104.328748,107.236958 102.195845,107.935334 C100.261902,108.568569 98.5461464,109.975629 97.0465343,112.157179 C95.5465273,114.339292 94.7968339,116.557326 94.7970736,118.810998 L94.8005835,152.304868 C94.8008371,154.629491 95.533841,156.380536 97.0012587,157.554038 C98.4670412,158.730234 100.201276,158.989601 102.20113,158.334789 C104.334034,157.636399 106.116941,156.243484 107.55105,154.152602 C108.983525,152.063962 109.700248,149.821897 109.699995,147.426335 L109.699459,142.24916 L102.699765,144.541079 C102.365712,144.650461 102.199678,144.529839 102.19965,144.176435 L102.198409,132.342704 C102.198367,131.99102 102.364358,131.759973 102.698412,131.65059 L121.397753,125.527844 C121.663443,125.440843 121.797746,125.573579 121.797774,125.925263 L121.799621,143.464548 C121.80003,147.40999 120.916244,151.273903 119.151097,155.056217 C117.384315,158.841224 115.034395,162.162782 112.102153,165.024952 C109.167883,167.887785 105.868124,169.919265 102.20247,171.119507 Z" id="Path"></path>
                    <path d="M131.300934,160.534969 C131.034018,160.622365 130.900912,160.490954 130.900912,160.13755 L130.99338,87.5172527 C130.993352,87.2365065 131.126401,87.0510672 131.393317,86.9636718 L163.492273,76.4534562 C163.757977,76.3664697 163.892253,76.499206 163.892309,76.8508758 L163.89355,88.6846063 C163.893578,88.9670735 163.759303,89.1512008 163.493599,89.2381873 L142.99421,95.9503365 L142.995929,112.4333 L163.495346,105.721151 C163.76105,105.63415 163.895326,105.732067 163.895354,106.012813 L163.996702,117.919103 C163.99673,118.201556 163.862483,118.386107 163.596779,118.473107 L142.997282,125.218032 L142.999227,143.708318 L163.598724,136.963394 C163.864427,136.876393 163.998703,137.008706 163.998731,137.360391 L164,149.405637 C164,149.688104 163.865781,149.872217 163.600077,149.959218 L131.300934,160.534969 Z" id="Path"></path>
                </g>
            </g>
        </g>
    </g>
</svg>