<?xml version="1.0" encoding="UTF-8"?>
<svg width="68px" height="68px" viewBox="0 0 68 68" version="1.1" xmlns="http://www.w3.org/2000/svg" xmlns:xlink="http://www.w3.org/1999/xlink">
    <title>obenstadt-logoCOLOUR_big</title>
    <g id="Design" stroke="none" stroke-width="1" fill="none" fill-rule="evenodd">
        <g id="HDT-Programm-L" transform="translate(-136.000000, -9104.000000)" fill-rule="nonzero">
            <g id="Footer-/-L" transform="translate(0.000000, 9016.000000)">
                <g id="Footer" transform="translate(0.000000, 31.000000)">
                    <g id="obenstadt-logoCOLOUR_big" transform="translate(136.000000, 57.000000)">
                        <path d="M68,34.0011994 C68,52.7793417 52.7793417,68 34.0011994,68 C15.2230571,68 0,52.7769429 0,34.0011994 C0,15.2230571 15.2230571,0 34.0011994,0 C52.7769429,0 68,15.2230571 68,34.0011994 Z" id="Path" fill="#FFFFFF"></path>
                        <g id="Group" transform="translate(6.000000, 29.000000)" fill="#0E141B">
                            <path d="M3.18389024,2.27317073 C5.03142288,2.27317073 6.41889799,3.38292683 6.41889799,5.7195122 C6.41889799,8.09268293 4.98030538,8.98780488 3.18389024,8.98780488 C1.32418677,8.98780488 0,8.05609756 0,5.70731707 C0,3.4097561 1.33879177,2.27317073 3.18389024,2.27317073 Z M3.18389024,7.36585366 C3.89710113,7.36585366 4.20380615,6.62439024 4.20380615,5.69268293 C4.20380615,4.46829268 3.91170613,3.90487805 3.18389024,3.90487805 C2.47067935,3.90487805 2.16397433,4.52926829 2.16397433,5.70487805 C2.1664085,6.65121951 2.41956185,7.36585366 3.18389024,7.36585366 Z" id="Shape"></path>
                            <path d="M7.15158221,0.370731707 C7.54591724,0.204878049 8.57800398,0 9.31799071,0 L9.31799071,2.82195122 C9.61009073,2.56585366 10.0433724,2.32439024 10.693295,2.32439024 C12.1951759,2.32439024 13.1250277,3.58780488 13.1250277,5.55365854 C13.1250277,7.54390244 12.0807701,8.98780488 10.0044258,8.98780488 C8.85793317,8.98780488 7.76255809,8.79512195 7.15158221,8.63170732 L7.15158221,0.370731707 L7.15158221,0.370731707 Z M9.31555654,4.12439024 L9.31555654,7.26341463 C9.31555654,7.26341463 9.65877407,7.32682927 9.97764992,7.32682927 C10.5375083,7.32682927 10.9196725,6.70243902 10.9196725,5.56585366 C10.9196725,4.58292683 10.5253375,4.02195122 10.0287674,4.02195122 C9.74883824,4.02195122 9.50785572,4.06097561 9.31555654,4.12439024 Z" id="Shape"></path>
                            <path d="M15.6784687,5.98780488 C15.6906395,6.79268293 16.2529321,7.30243902 17.156008,7.30243902 C17.6647488,7.30243902 18.3025006,7.13658537 18.9645939,6.76585366 L19.461164,8.06829268 C18.5313122,8.66829268 17.5381722,8.98780488 16.6326621,8.98780488 C14.938482,8.98780488 13.5753485,7.8902439 13.5753485,5.51707317 C13.5753485,3.20731707 15.1794645,2.3 16.6448329,2.3 C18.4144722,2.3 19.3078115,3.47317073 19.3078115,4.82682927 L19.3078115,5.98780488 L15.6784687,5.98780488 Z M15.6638637,4.8 L17.2947555,4.8 C17.2947555,4.12439024 17.1170613,3.66341463 16.5815446,3.66341463 C16.1360921,3.66341463 15.6906395,3.93170732 15.6638637,4.8 Z" id="Shape"></path>
                            <path d="M24.027661,4.83902439 C24.027661,4.12439024 23.5943793,4.04878049 23.2243859,4.04878049 C22.9566276,4.04878049 22.6888692,4.15121951 22.4478867,4.2902439 L22.4478867,8.80731707 L20.2181899,8.80731707 L20.2181899,2.57804878 C20.7658774,2.36097561 21.5813233,2.24634146 22.40894,2.24634146 L22.40894,3.12682927 C22.9298517,2.69268293 23.618721,2.3097561 24.2443018,2.3097561 C25.4930294,2.3097561 26.2573578,2.88292683 26.2573578,4.46585366 L26.2573578,8.80487805 L24.027661,8.80487805 L24.027661,4.83902439 L24.027661,4.83902439 Z" id="Path"></path>
                            <path d="M27.2188537,7.09756098 C27.5742421,7.23902439 28.302058,7.37804878 28.9519805,7.37804878 C29.3730914,7.37804878 29.6019031,7.27560976 29.6019031,7.02195122 C29.6019031,6.86829268 29.5264439,6.71707317 29.2951981,6.6 L28.3142288,6.10243902 C27.7787121,5.83414634 27.1433946,5.36341463 27.1433946,4.26585366 C27.1433946,2.87560976 28.4286347,2.3 29.9962381,2.3 C30.5682673,2.3 31.1816774,2.37560976 31.7926532,2.51707317 C31.7926532,2.93902439 31.5760124,3.80487805 31.3472007,4.15121951 C30.913919,4.0097561 30.3272848,3.92195122 29.8185439,3.92195122 C29.4631556,3.92195122 29.2830272,4.07560976 29.2830272,4.27804878 C29.2830272,4.48292683 29.4096039,4.63658537 29.6895331,4.76341463 L30.6705023,5.22195122 C31.2181899,5.47804878 31.8924541,5.97560976 31.8924541,7.06097561 C31.8924541,8.47804878 30.6437265,8.95121951 29.2562514,8.95121951 C28.5673822,8.95121951 27.8420004,8.83658537 27.2188537,8.65853659 L27.2188537,7.09756098 L27.2188537,7.09756098 Z" id="Path"></path>
                            <path d="M35.2637752,2.4902439 L36.8678911,2.4902439 L36.8678911,4.02195122 L35.2637752,4.02195122 L35.2516043,6.38292683 C35.2516043,7.2 35.5047577,7.35365854 35.9380394,7.35365854 C36.1546802,7.35365854 36.4467803,7.27560976 36.7267094,7.2 C36.8678911,7.54390244 36.967692,8.3097561 37.0066386,8.65609756 C36.4200044,8.87317073 35.8844877,9 35.1980527,9 C34.1270193,9 33.160655,8.54146341 33.1728258,6.81707317 L33.1849967,4.02195122 L32.0385041,4.02195122 C32.0385041,3.53658537 32.1796858,2.94878049 32.4717858,2.4902439 L33.2239434,2.4902439 L33.2361142,1.44390244 C33.2361142,1.44390244 34.4458951,0.870731707 35.2735118,0.804878049 L35.2637752,2.4902439 Z" id="Path"></path>
                            <path d="M43.4425758,8.28536585 C42.9849524,8.6804878 42.220624,8.94878049 41.4806373,9 L41.0473556,8.38780488 C40.7041381,8.69512195 40.2440805,8.98780488 39.2898871,8.98780488 C38.1044479,8.98780488 37.303607,8.1195122 37.303607,7.16341463 C37.303607,6.56341463 37.6078778,5.92682927 38.1312237,5.6195122 C38.7568046,5.24878049 39.798628,5.09512195 40.6797964,5.04634146 L40.6797964,4.7902439 C40.6797964,4.24146341 40.3609206,3.98536585 39.7888913,3.98536585 C39.0756805,3.98536585 38.5279929,4.15121951 38.1458287,4.34390244 L37.5981412,3.04146341 C38.1458287,2.72195122 39.2801505,2.26341463 40.222173,2.26341463 C40.7820314,2.26341463 41.2664306,2.32682927 41.6997123,2.62195122 C42.2473999,2.97804878 42.7439699,3.51463415 42.7317991,4.5097561 L42.7050232,7.39268293 L43.4425758,8.28536585 Z M40.6408497,7.53170732 L40.6408497,6.21707317 C39.8886922,6.2804878 39.3556096,6.54878049 39.3556096,6.99512195 C39.3556096,7.36585366 39.6355388,7.65853659 40.0688205,7.65853659 C40.2343439,7.65853659 40.4363797,7.60731707 40.6408497,7.53170732 Z" id="Shape"></path>
                            <path d="M50.2119938,8.29756098 C49.9198938,8.62926829 49.0655012,8.96097561 48.1745961,8.96097561 L47.7291436,8.34878049 C47.3469794,8.66829268 46.7092277,8.93658537 45.8694401,8.93658537 C44.4162425,8.93658537 43.4863908,7.64634146 43.4863908,5.54146341 C43.4863908,3.74146341 44.4405842,2.27317073 45.9448993,2.27317073 C46.5558752,2.27317073 47.0013277,2.46341463 47.3080328,2.65609756 L47.3080328,0.295121951 C47.9311795,0.0902439024 48.8123479,0.00243902439 49.4744412,0.00243902439 L49.4744412,7.30243902 L50.2119938,8.29756098 Z M47.3055986,7.28780488 L47.3055986,4.11219512 C47.1522461,4.06097561 46.9356052,4.0097561 46.6824519,4.0097561 C46.0325293,4.0097561 45.6893118,4.66097561 45.6893118,5.56585366 C45.6893118,6.73902439 46.1225935,7.35365854 46.8479752,7.35365854 C46.9891569,7.35365854 47.1425094,7.33902439 47.3055986,7.28780488 Z" id="Shape"></path>
                            <path d="M53.2547024,2.4902439 L54.8612525,2.4902439 L54.8612525,4.02195122 L53.2547024,4.02195122 L53.2425315,6.38292683 C53.2425315,7.2 53.4956849,7.35365854 53.9314008,7.35365854 C54.1480416,7.35365854 54.4401416,7.27560976 54.7200708,7.2 C54.8612525,7.54390244 54.9634875,8.3097561 55,8.65609756 C54.4133658,8.87317073 53.8802832,9 53.191414,9 C52.1228148,9 51.1540164,8.54146341 51.1661872,6.81707317 L51.178358,4.02195122 L50.0318655,4.02195122 C50.0318655,3.53658537 50.170613,2.94878049 50.4651472,2.4902439 L51.2173047,2.4902439 L51.2294755,1.44390244 C51.2294755,1.44390244 52.4392565,0.870731707 53.2668732,0.804878049 L53.2547024,2.4902439 Z" id="Path"></path>
                        </g>
                    </g>
                </g>
            </g>
        </g>
    </g>
</svg>